<svg xmlns="http://www.w3.org/2000/svg" width="32" height="32" viewBox="-1413 -8575 32 32" fill="none">
  <circle cx="-1397" cy="-8559" r="16" fill="#ECECEC" />
  <path
    d="M -1397.1146240234375 -8551.6669921875 C -1397.053466796875 -8551.6669921875, -1396.992431640625 -8551.6826171875, -1396.9312744140625 -8551.712890625 C -1396.8701171875 -8551.7431640625, -1396.8243408203125 -8551.7744140625, -1396.7938232421875 -8551.8046875 L -1389.277099609375 -8559.3212890625 C -1389.09375 -8559.5048828125, -1388.9600830078125 -8559.7109375, -1388.8760986328125 -8559.939453125 C -1388.7919921875 -8560.1689453125, -1388.75 -8560.3984375, -1388.75 -8560.626953125 C -1388.75 -8560.8720703125, -1388.7919921875 -8561.1044921875, -1388.8760986328125 -8561.326171875 C -1388.9600830078125 -8561.5478515625, -1389.09375 -8561.7431640625, -1389.277099609375 -8561.9111328125 L -1393.1729736328125 -8565.806640625 C -1393.3409423828125 -8565.990234375, -1393.5357666015625 -8566.1240234375, -1393.75732421875 -8566.2080078125 C -1393.9788818359375 -8566.2919921875, -1394.2117919921875 -8566.333984375, -1394.456298828125 -8566.333984375 C -1394.6854248046875 -8566.333984375, -1394.9146728515625 -8566.2919921875, -1395.143798828125 -8566.2080078125 C -1395.3729248046875 -8566.1240234375, -1395.5792236328125 -8565.990234375, -1395.7625732421875 -8565.806640625 L -1396.0146484375 -8565.5546875 L -1394.3187255859375 -8563.8359375 C -1394.089599609375 -8563.6220703125, -1393.9215087890625 -8563.376953125, -1393.8145751953125 -8563.1025390625 C -1393.7076416015625 -8562.8271484375, -1393.6541748046875 -8562.537109375, -1393.6541748046875 -8562.2314453125 C -1393.6541748046875 -8561.58984375, -1393.8719482421875 -8561.0517578125, -1394.307373046875 -8560.6162109375 C -1394.7427978515625 -8560.1806640625, -1395.28125 -8559.962890625, -1395.9229736328125 -8559.962890625 C -1396.228515625 -8559.962890625, -1396.5225830078125 -8560.0166015625, -1396.8052978515625 -8560.123046875 C -1397.087890625 -8560.23046875, -1397.336181640625 -8560.390625, -1397.550048828125 -8560.6044921875 L -1399.268798828125 -8562.30078125 L -1403.2791748046875 -8558.2900390625 C -1403.3250732421875 -8558.244140625, -1403.359375 -8558.1943359375, -1403.38232421875 -8558.140625 C -1403.4052734375 -8558.087890625, -1403.416748046875 -8558.0302734375, -1403.416748046875 -8557.96875 C -1403.416748046875 -8557.8466796875, -1403.370849609375 -8557.736328125, -1403.2791748046875 -8557.63671875 C -1403.1875 -8557.537109375, -1403.08056640625 -8557.48828125, -1402.9583740234375 -8557.48828125 C -1402.897216796875 -8557.48828125, -1402.836181640625 -8557.5029296875, -1402.7750244140625 -8557.533203125 C -1402.7138671875 -8557.564453125, -1402.6680908203125 -8557.5947265625, -1402.6375732421875 -8557.625 L -1399.5208740234375 -8560.7421875 L -1398.237548828125 -8559.458984375 L -1401.331298828125 -8556.341796875 C -1401.3770751953125 -8556.2958984375, -1401.4114990234375 -8556.24609375, -1401.4344482421875 -8556.193359375 C -1401.457275390625 -8556.1396484375, -1401.46875 -8556.08203125, -1401.46875 -8556.021484375 C -1401.46875 -8555.8994140625, -1401.4229736328125 -8555.7919921875, -1401.331298828125 -8555.7001953125 C -1401.2396240234375 -8555.6083984375, -1401.1326904296875 -8555.5625, -1401.010498046875 -8555.5625 C -1400.9493408203125 -8555.5625, -1400.88818359375 -8555.578125, -1400.8271484375 -8555.6083984375 C -1400.7659912109375 -8555.6396484375, -1400.72021484375 -8555.669921875, -1400.6895751953125 -8555.7001953125 L -1397.572998046875 -8558.7939453125 L -1396.2896728515625 -8557.5107421875 L -1399.3834228515625 -8554.39453125 C -1399.42919921875 -8554.36328125, -1399.463623046875 -8554.3173828125, -1399.4864501953125 -8554.2568359375 C -1399.5093994140625 -8554.1953125, -1399.5208740234375 -8554.134765625, -1399.5208740234375 -8554.0732421875 C -1399.5208740234375 -8553.951171875, -1399.4749755859375 -8553.84375, -1399.3834228515625 -8553.751953125 C -1399.291748046875 -8553.6611328125, -1399.1846923828125 -8553.615234375, -1399.0625 -8553.615234375 C -1399.00146484375 -8553.615234375, -1398.944091796875 -8553.6259765625, -1398.890625 -8553.6494140625 C -1398.837158203125 -8553.671875, -1398.7874755859375 -8553.70703125, -1398.74169921875 -8553.751953125 L -1395.625 -8556.845703125 L -1394.3416748046875 -8555.5625 L -1397.4583740234375 -8552.4462890625 C -1397.504150390625 -8552.400390625, -1397.53857421875 -8552.3505859375, -1397.5615234375 -8552.296875 C -1397.5843505859375 -8552.244140625, -1397.5958251953125 -8552.1865234375, -1397.5958251953125 -8552.125 C -1397.5958251953125 -8552.0029296875, -1397.5462646484375 -8551.896484375, -1397.4468994140625 -8551.8046875 C -1397.34765625 -8551.712890625, -1397.23681640625 -8551.6669921875, -1397.1146240234375 -8551.6669921875 Z M -1397.1375732421875 -8549.833984375 C -1397.7027587890625 -8549.833984375, -1398.203125 -8550.0205078125, -1398.6385498046875 -8550.3955078125 C -1399.073974609375 -8550.76953125, -1399.329833984375 -8551.2392578125, -1399.40625 -8551.8046875 C -1399.92578125 -8551.880859375, -1400.361083984375 -8552.0947265625, -1400.7125244140625 -8552.4462890625 C -1401.06396484375 -8552.7978515625, -1401.27783203125 -8553.2333984375, -1401.354248046875 -8553.751953125 C -1401.8736572265625 -8553.8291015625, -1402.3052978515625 -8554.046875, -1402.6490478515625 -8554.4052734375 C -1402.9927978515625 -8554.7646484375, -1403.2027587890625 -8555.1962890625, -1403.2791748046875 -8555.7001953125 C -1403.8597412109375 -8555.7763671875, -1404.3333740234375 -8556.0283203125, -1404.7000732421875 -8556.45703125 C -1405.066650390625 -8556.884765625, -1405.25 -8557.388671875, -1405.25 -8557.96875 C -1405.25 -8558.2744140625, -1405.1927490234375 -8558.568359375, -1405.078125 -8558.8515625 C -1404.963623046875 -8559.1337890625, -1404.79931640625 -8559.3818359375, -1404.58544921875 -8559.595703125 L -1399.268798828125 -8564.8896484375 L -1396.2667236328125 -8561.8876953125 C -1396.236083984375 -8561.841796875, -1396.1903076171875 -8561.8076171875, -1396.129150390625 -8561.78515625 C -1396.068115234375 -8561.76171875, -1396.0069580078125 -8561.75, -1395.9459228515625 -8561.75 C -1395.808349609375 -8561.75, -1395.6937255859375 -8561.7919921875, -1395.6021728515625 -8561.8759765625 C -1395.510498046875 -8561.9599609375, -1395.464599609375 -8562.0712890625, -1395.464599609375 -8562.208984375 C -1395.464599609375 -8562.26953125, -1395.47607421875 -8562.3310546875, -1395.4990234375 -8562.3916015625 C -1395.5218505859375 -8562.453125, -1395.5562744140625 -8562.4990234375, -1395.6021728515625 -8562.529296875 L -1398.879150390625 -8565.806640625 C -1399.0472412109375 -8565.990234375, -1399.2420654296875 -8566.1240234375, -1399.463623046875 -8566.2080078125 C -1399.68505859375 -8566.2919921875, -1399.9180908203125 -8566.333984375, -1400.1624755859375 -8566.333984375 C -1400.3917236328125 -8566.333984375, -1400.620849609375 -8566.2919921875, -1400.8499755859375 -8566.2080078125 C -1401.0792236328125 -8566.1240234375, -1401.285400390625 -8565.990234375, -1401.46875 -8565.806640625 L -1404.7000732421875 -8562.552734375 C -1404.8375244140625 -8562.4150390625, -1404.9521484375 -8562.2548828125, -1405.0438232421875 -8562.0712890625 C -1405.135498046875 -8561.8876953125, -1405.196533203125 -8561.7041015625, -1405.2271728515625 -8561.521484375 C -1405.2576904296875 -8561.337890625, -1405.2576904296875 -8561.150390625, -1405.2271728515625 -8560.9599609375 C -1405.196533203125 -8560.7685546875, -1405.135498046875 -8560.5888671875, -1405.0438232421875 -8560.4208984375 L -1406.3729248046875 -8559.091796875 C -1406.6326904296875 -8559.443359375, -1406.8236083984375 -8559.8291015625, -1406.9459228515625 -8560.2490234375 C -1407.068115234375 -8560.6689453125, -1407.1138916015625 -8561.09375, -1407.0833740234375 -8561.521484375 C -1407.0528564453125 -8561.94921875, -1406.9459228515625 -8562.365234375, -1406.7625732421875 -8562.7705078125 C -1406.5792236328125 -8563.1748046875, -1406.3271484375 -8563.5380859375, -1406.0062255859375 -8563.8583984375 L -1402.7750244140625 -8567.08984375 C -1402.4083251953125 -8567.44140625, -1401.9996337890625 -8567.708984375, -1401.5489501953125 -8567.8916015625 C -1401.0982666015625 -8568.0751953125, -1400.6361083984375 -8568.1669921875, -1400.1624755859375 -8568.1669921875 C -1399.68896484375 -8568.1669921875, -1399.226806640625 -8568.0751953125, -1398.776123046875 -8567.8916015625 C -1398.3253173828125 -8567.708984375, -1397.92431640625 -8567.44140625, -1397.572998046875 -8567.08984375 L -1397.3209228515625 -8566.837890625 L -1397.0687255859375 -8567.08984375 C -1396.7021484375 -8567.44140625, -1396.29345703125 -8567.708984375, -1395.8427734375 -8567.8916015625 C -1395.39208984375 -8568.0751953125, -1394.929931640625 -8568.1669921875, -1394.456298828125 -8568.1669921875 C -1393.982666015625 -8568.1669921875, -1393.5205078125 -8568.0751953125, -1393.06982421875 -8567.8916015625 C -1392.619140625 -8567.708984375, -1392.2181396484375 -8567.44140625, -1391.86669921875 -8567.08984375 L -1387.9937744140625 -8563.216796875 C -1387.642333984375 -8562.865234375, -1387.375 -8562.4609375, -1387.191650390625 -8562.001953125 C -1387.0084228515625 -8561.5439453125, -1386.916748046875 -8561.078125, -1386.916748046875 -8560.6044921875 C -1386.916748046875 -8560.130859375, -1387.0084228515625 -8559.6689453125, -1387.191650390625 -8559.2177734375 C -1387.375 -8558.767578125, -1387.642333984375 -8558.3662109375, -1387.9937744140625 -8558.0146484375 L -1395.510498046875 -8550.521484375 C -1395.724365234375 -8550.3076171875, -1395.97265625 -8550.1396484375, -1396.2552490234375 -8550.0166015625 C -1396.537841796875 -8549.89453125, -1396.83203125 -8549.833984375, -1397.1375732421875 -8549.833984375 Z"
    fill="#616161"
  />
</svg>
