<svg xmlns="http://www.w3.org/2000/svg" width="32" height="32" viewBox="-1131 -8575 32 32" fill="none">
  <circle cx="-1115" cy="-8559" r="16" fill="#ECECEC" />
  <path
    d="M -1119.239501953125 -8550.7275390625 C -1119.78955078125 -8550.7421875, -1120.3128662109375 -8550.8837890625, -1120.809326171875 -8551.1513671875 C -1121.305908203125 -8551.41796875, -1121.775634765625 -8551.8115234375, -1122.21875 -8552.3310546875 C -1122.829833984375 -8553.064453125, -1123.3072509765625 -8553.939453125, -1123.6510009765625 -8554.955078125 C -1123.9947509765625 -8555.970703125, -1124.1666259765625 -8557.013671875, -1124.1666259765625 -8558.0830078125 C -1124.1666259765625 -8559.3515625, -1123.926025390625 -8560.54296875, -1123.4447021484375 -8561.658203125 C -1122.9635009765625 -8562.7734375, -1122.3104248046875 -8563.744140625, -1121.4853515625 -8564.568359375 C -1120.660400390625 -8565.3935546875, -1119.690185546875 -8566.046875, -1118.574951171875 -8566.5283203125 C -1117.459716796875 -8567.009765625, -1116.26806640625 -8567.25, -1115 -8567.25 C -1113.73193359375 -8567.25, -1112.540283203125 -8567.005859375, -1111.4249267578125 -8566.5166015625 C -1110.3096923828125 -8566.02734375, -1109.339599609375 -8565.36328125, -1108.5145263671875 -8564.5224609375 C -1107.6895751953125 -8563.6826171875, -1107.036376953125 -8562.697265625, -1106.55517578125 -8561.56640625 C -1106.073974609375 -8560.4365234375, -1105.833251953125 -8559.2216796875, -1105.833251953125 -8557.9228515625 C -1105.833251953125 -8556.74609375, -1106.0242919921875 -8555.646484375, -1106.40625 -8554.623046875 C -1106.7882080078125 -8553.599609375, -1107.33056640625 -8552.736328125, -1108.0333251953125 -8552.033203125 C -1108.4610595703125 -8551.60546875, -1108.9117431640625 -8551.28125, -1109.3853759765625 -8551.0595703125 C -1109.8590087890625 -8550.837890625, -1110.3402099609375 -8550.7275390625, -1110.8291015625 -8550.7275390625 C -1111.1041259765625 -8550.7275390625, -1111.379150390625 -8550.76171875, -1111.6541748046875 -8550.830078125 C -1111.9290771484375 -8550.8994140625, -1112.2041015625 -8551.001953125, -1112.4791259765625 -8551.1396484375 L -1113.762451171875 -8551.78125 C -1113.94580078125 -8551.873046875, -1114.140625 -8551.94140625, -1114.3468017578125 -8551.9873046875 C -1114.5531005859375 -8552.033203125, -1114.770751953125 -8552.056640625, -1115 -8552.056640625 C -1115.2291259765625 -8552.056640625, -1115.44677734375 -8552.033203125, -1115.653076171875 -8551.9873046875 C -1115.859375 -8551.94140625, -1116.0540771484375 -8551.873046875, -1116.2374267578125 -8551.78125 L -1117.520751953125 -8551.1396484375 C -1117.81103515625 -8550.986328125, -1118.0975341796875 -8550.8759765625, -1118.380126953125 -8550.8076171875 C -1118.662841796875 -8550.73828125, -1118.94921875 -8550.7119140625, -1119.239501953125 -8550.7275390625 Z M -1119.1937255859375 -8552.560546875 C -1119.05615234375 -8552.560546875, -1118.9149169921875 -8552.576171875, -1118.769775390625 -8552.6064453125 C -1118.6246337890625 -8552.63671875, -1118.4832763671875 -8552.6904296875, -1118.3458251953125 -8552.7666015625 L -1117.0625 -8553.408203125 C -1116.7415771484375 -8553.576171875, -1116.4093017578125 -8553.6982421875, -1116.0655517578125 -8553.775390625 C -1115.7218017578125 -8553.8515625, -1115.374267578125 -8553.8896484375, -1115.0228271484375 -8553.8896484375 C -1114.6715087890625 -8553.8896484375, -1114.320068359375 -8553.8515625, -1113.96875 -8553.775390625 C -1113.6173095703125 -8553.6982421875, -1113.28125 -8553.576171875, -1112.9603271484375 -8553.408203125 L -1111.6541748046875 -8552.7666015625 C -1111.5166015625 -8552.6904296875, -1111.379150390625 -8552.63671875, -1111.2415771484375 -8552.6064453125 C -1111.1041259765625 -8552.576171875, -1110.9666748046875 -8552.560546875, -1110.8291015625 -8552.560546875 C -1110.538818359375 -8552.560546875, -1110.2637939453125 -8552.63671875, -1110.004150390625 -8552.7900390625 C -1109.744384765625 -8552.9423828125, -1109.4847412109375 -8553.171875, -1109.2249755859375 -8553.4775390625 C -1108.736083984375 -8554.0576171875, -1108.3541259765625 -8554.7529296875, -1108.0791015625 -8555.5625 C -1107.8040771484375 -8556.3720703125, -1107.6666259765625 -8557.205078125, -1107.6666259765625 -8558.060546875 C -1107.6666259765625 -8560.107421875, -1108.3770751953125 -8561.845703125, -1109.7978515625 -8563.2744140625 C -1111.21875 -8564.7021484375, -1112.9527587890625 -8565.4169921875, -1115 -8565.4169921875 C -1117.0472412109375 -8565.4169921875, -1118.78125 -8564.6982421875, -1120.2020263671875 -8563.2626953125 C -1121.6229248046875 -8561.826171875, -1122.333251953125 -8560.0849609375, -1122.333251953125 -8558.037109375 C -1122.333251953125 -8557.1669921875, -1122.1920166015625 -8556.318359375, -1121.9093017578125 -8555.494140625 C -1121.626708984375 -8554.6689453125, -1121.2332763671875 -8553.9736328125, -1120.7291259765625 -8553.408203125 C -1120.4693603515625 -8553.1025390625, -1120.21728515625 -8552.884765625, -1119.972900390625 -8552.7548828125 C -1119.7283935546875 -8552.625, -1119.46875 -8552.560546875, -1119.1937255859375 -8552.560546875 Z M -1115 -8556.25 C -1114.495849609375 -8556.25, -1114.064208984375 -8556.4296875, -1113.7052001953125 -8556.7880859375 C -1113.34619140625 -8557.1474609375, -1113.1666259765625 -8557.5791015625, -1113.1666259765625 -8558.0830078125 C -1113.1666259765625 -8558.205078125, -1113.1781005859375 -8558.328125, -1113.2010498046875 -8558.4501953125 C -1113.223876953125 -8558.572265625, -1113.25830078125 -8558.6943359375, -1113.3040771484375 -8558.81640625 L -1112.1583251953125 -8560.3525390625 C -1112.0054931640625 -8560.1533203125, -1111.871826171875 -8559.943359375, -1111.7572021484375 -8559.7216796875 C -1111.6427001953125 -8559.5, -1111.5472412109375 -8559.259765625, -1111.4708251953125 -8559 L -1109.5916748046875 -8559 C -1109.82080078125 -8560.3447265625, -1110.443359375 -8561.4443359375, -1111.4593505859375 -8562.2998046875 C -1112.475341796875 -8563.1552734375, -1113.655517578125 -8563.5830078125, -1115 -8563.5830078125 C -1116.3443603515625 -8563.5830078125, -1117.5284423828125 -8563.1513671875, -1118.552001953125 -8562.2880859375 C -1119.57568359375 -8561.42578125, -1120.1944580078125 -8560.3291015625, -1120.4083251953125 -8559 L -1118.5291748046875 -8559 C -1118.315185546875 -8559.8251953125, -1117.8797607421875 -8560.4892578125, -1117.222900390625 -8560.994140625 C -1116.56591796875 -8561.498046875, -1115.824951171875 -8561.75, -1115 -8561.75 C -1114.740234375 -8561.75, -1114.495849609375 -8561.7275390625, -1114.2666015625 -8561.681640625 C -1114.0374755859375 -8561.6357421875, -1113.81591796875 -8561.56640625, -1113.60205078125 -8561.474609375 L -1114.770751953125 -8559.8935546875 C -1114.8013916015625 -8559.8935546875, -1114.839599609375 -8559.8974609375, -1114.8853759765625 -8559.9052734375 C -1114.93115234375 -8559.9130859375, -1114.9693603515625 -8559.9169921875, -1115 -8559.9169921875 C -1115.504150390625 -8559.9169921875, -1115.9356689453125 -8559.7373046875, -1116.2947998046875 -8559.3779296875 C -1116.65380859375 -8559.01953125, -1116.833251953125 -8558.587890625, -1116.833251953125 -8558.0830078125 C -1116.833251953125 -8557.5791015625, -1116.65380859375 -8557.1474609375, -1116.2947998046875 -8556.7880859375 C -1115.9356689453125 -8556.4296875, -1115.504150390625 -8556.25, -1115 -8556.25 Z"
    fill="#616161"
  />
</svg>
