<svg xmlns="http://www.w3.org/2000/svg" width="32" height="32" viewBox="-1977 -8574.5 32 32" fill="none">
  <circle cx="-1961" cy="-8558.5" r="16" fill="#ECECEC" />
  <path
    d="M -1959.166748046875 -8557.5830078125 C -1959.9305419921875 -8557.5830078125, -1960.5799560546875 -8557.8505859375, -1961.1146240234375 -8558.384765625 C -1961.6492919921875 -8558.919921875, -1961.916748046875 -8559.5693359375, -1961.916748046875 -8560.3330078125 C -1961.916748046875 -8561.0966796875, -1961.6492919921875 -8561.74609375, -1961.1146240234375 -8562.28125 C -1960.5799560546875 -8562.8154296875, -1959.9305419921875 -8563.0830078125, -1959.166748046875 -8563.0830078125 C -1958.40283203125 -8563.0830078125, -1957.7535400390625 -8562.8154296875, -1957.21875 -8562.28125 C -1956.68408203125 -8561.74609375, -1956.416748046875 -8561.0966796875, -1956.416748046875 -8560.3330078125 C -1956.416748046875 -8559.5693359375, -1956.68408203125 -8558.919921875, -1957.21875 -8558.384765625 C -1957.7535400390625 -8557.8505859375, -1958.40283203125 -8557.5830078125, -1959.166748046875 -8557.5830078125 Z M -1965.5833740234375 -8554.8330078125 C -1966.0875244140625 -8554.8330078125, -1966.5191650390625 -8555.0126953125, -1966.878173828125 -8555.37109375 C -1967.2371826171875 -8555.73046875, -1967.416748046875 -8556.162109375, -1967.416748046875 -8556.666015625 L -1967.416748046875 -8564 C -1967.416748046875 -8564.50390625, -1967.2371826171875 -8564.935546875, -1966.878173828125 -8565.294921875 C -1966.5191650390625 -8565.6533203125, -1966.0875244140625 -8565.8330078125, -1965.5833740234375 -8565.8330078125 L -1952.75 -8565.8330078125 C -1952.245849609375 -8565.8330078125, -1951.8143310546875 -8565.6533203125, -1951.4552001953125 -8565.294921875 C -1951.09619140625 -8564.935546875, -1950.916748046875 -8564.50390625, -1950.916748046875 -8564 L -1950.916748046875 -8556.666015625 C -1950.916748046875 -8556.162109375, -1951.09619140625 -8555.73046875, -1951.4552001953125 -8555.37109375 C -1951.8143310546875 -8555.0126953125, -1952.245849609375 -8554.8330078125, -1952.75 -8554.8330078125 L -1965.5833740234375 -8554.8330078125 Z M -1963.75 -8556.666015625 L -1954.5833740234375 -8556.666015625 C -1954.5833740234375 -8557.1708984375, -1954.40380859375 -8557.6025390625, -1954.0447998046875 -8557.9609375 C -1953.685791015625 -8558.3203125, -1953.254150390625 -8558.5, -1952.75 -8558.5 L -1952.75 -8562.166015625 C -1953.254150390625 -8562.166015625, -1953.685791015625 -8562.345703125, -1954.0447998046875 -8562.705078125 C -1954.40380859375 -8563.0634765625, -1954.5833740234375 -8563.4951171875, -1954.5833740234375 -8564 L -1963.75 -8564 C -1963.75 -8563.4951171875, -1963.9295654296875 -8563.0634765625, -1964.28857421875 -8562.705078125 C -1964.6475830078125 -8562.345703125, -1965.0792236328125 -8562.166015625, -1965.5833740234375 -8562.166015625 L -1965.5833740234375 -8558.5 C -1965.0792236328125 -8558.5, -1964.6475830078125 -8558.3203125, -1964.28857421875 -8557.9609375 C -1963.9295654296875 -8557.6025390625, -1963.75 -8557.1708984375, -1963.75 -8556.666015625 Z M -1953.666748046875 -8551.166015625 L -1969.25 -8551.166015625 C -1969.754150390625 -8551.166015625, -1970.185791015625 -8551.345703125, -1970.5447998046875 -8551.705078125 C -1970.90380859375 -8552.0634765625, -1971.0833740234375 -8552.4951171875, -1971.0833740234375 -8553 L -1971.0833740234375 -8563.0830078125 L -1969.25 -8563.0830078125 L -1969.25 -8553 L -1953.666748046875 -8553 L -1953.666748046875 -8551.166015625 Z"
    fill="#616161"
  />
</svg>
