<svg xmlns="http://www.w3.org/2000/svg" width="32" height="32" viewBox="1050 -8761 32 32" fill="none">
  <path
    d="M 1076.13330078125 -8733 L 1067.7332763671875 -8741.400390625 C 1067.066650390625 -8740.8662109375, 1066.300048828125 -8740.4443359375, 1065.433349609375 -8740.1337890625 C 1064.566650390625 -8739.822265625, 1063.6444091796875 -8739.6669921875, 1062.6666259765625 -8739.6669921875 C 1060.244384765625 -8739.6669921875, 1058.1944580078125 -8740.505859375, 1056.5167236328125 -8742.18359375 C 1054.8388671875 -8743.861328125, 1054 -8745.9111328125, 1054 -8748.3330078125 C 1054 -8750.755859375, 1054.8388671875 -8752.8056640625, 1056.5167236328125 -8754.4833984375 C 1058.1944580078125 -8756.1611328125, 1060.244384765625 -8757, 1062.6666259765625 -8757 C 1065.0888671875 -8757, 1067.138916015625 -8756.1611328125, 1068.816650390625 -8754.4833984375 C 1070.494384765625 -8752.8056640625, 1071.3333740234375 -8750.755859375, 1071.3333740234375 -8748.3330078125 C 1071.3333740234375 -8747.35546875, 1071.177734375 -8746.43359375, 1070.86669921875 -8745.56640625 C 1070.5555419921875 -8744.7001953125, 1070.13330078125 -8743.93359375, 1069.5999755859375 -8743.2666015625 L 1078 -8734.8662109375 L 1076.13330078125 -8733 Z M 1062.6666259765625 -8742.3330078125 C 1064.3333740234375 -8742.3330078125, 1065.75 -8742.9169921875, 1066.9166259765625 -8744.0830078125 C 1068.0833740234375 -8745.25, 1068.6666259765625 -8746.6669921875, 1068.6666259765625 -8748.3330078125 C 1068.6666259765625 -8750, 1068.0833740234375 -8751.4169921875, 1066.9166259765625 -8752.5830078125 C 1065.75 -8753.75, 1064.3333740234375 -8754.3330078125, 1062.6666259765625 -8754.3330078125 C 1061 -8754.3330078125, 1059.5833740234375 -8753.75, 1058.4166259765625 -8752.5830078125 C 1057.25 -8751.4169921875, 1056.6666259765625 -8750, 1056.6666259765625 -8748.3330078125 C 1056.6666259765625 -8746.6669921875, 1057.25 -8745.25, 1058.4166259765625 -8744.0830078125 C 1059.5833740234375 -8742.9169921875, 1061 -8742.3330078125, 1062.6666259765625 -8742.3330078125 Z"
    fill="#636060"
  />
</svg>
