<svg xmlns="http://www.w3.org/2000/svg" width="32" height="32" viewBox="-1695 -8575 32 32" fill="none">
  <circle cx="-1679" cy="-8559" r="16" fill="#ECECEC" />
  <path
    d="M -1679 -8559 C -1680.0084228515625 -8559, -1680.87158203125 -8559.3583984375, -1681.589599609375 -8560.0771484375 C -1682.3077392578125 -8560.794921875, -1682.666748046875 -8561.658203125, -1682.666748046875 -8562.666015625 C -1682.666748046875 -8563.6748046875, -1682.3077392578125 -8564.5380859375, -1681.589599609375 -8565.255859375 C -1680.87158203125 -8565.9736328125, -1680.0084228515625 -8566.3330078125, -1679 -8566.3330078125 C -1677.99169921875 -8566.3330078125, -1677.1285400390625 -8565.9736328125, -1676.410400390625 -8565.255859375 C -1675.6923828125 -8564.5380859375, -1675.3333740234375 -8563.6748046875, -1675.3333740234375 -8562.666015625 C -1675.3333740234375 -8561.658203125, -1675.6923828125 -8560.794921875, -1676.410400390625 -8560.0771484375 C -1677.1285400390625 -8559.3583984375, -1677.99169921875 -8559, -1679 -8559 Z M -1686.3333740234375 -8551.666015625 L -1686.3333740234375 -8554.2333984375 C -1686.3333740234375 -8554.7529296875, -1686.19970703125 -8555.2294921875, -1685.932373046875 -8555.6650390625 C -1685.6649169921875 -8556.1005859375, -1685.309814453125 -8556.4326171875, -1684.86669921875 -8556.662109375 C -1683.91943359375 -8557.1357421875, -1682.95703125 -8557.4912109375, -1681.979248046875 -8557.7275390625 C -1681.00146484375 -8557.96484375, -1680.0084228515625 -8558.0830078125, -1679 -8558.0830078125 C -1677.99169921875 -8558.0830078125, -1676.9986572265625 -8557.96484375, -1676.0208740234375 -8557.7275390625 C -1675.0430908203125 -8557.4912109375, -1674.08056640625 -8557.1357421875, -1673.1334228515625 -8556.662109375 C -1672.6903076171875 -8556.4326171875, -1672.3350830078125 -8556.1005859375, -1672.0677490234375 -8555.6650390625 C -1671.8004150390625 -8555.2294921875, -1671.666748046875 -8554.7529296875, -1671.666748046875 -8554.2333984375 L -1671.666748046875 -8551.666015625 L -1686.3333740234375 -8551.666015625 Z M -1684.5 -8553.5 L -1673.5 -8553.5 L -1673.5 -8554.2333984375 C -1673.5 -8554.4013671875, -1673.5421142578125 -8554.5537109375, -1673.6260986328125 -8554.69140625 C -1673.7100830078125 -8554.8291015625, -1673.8209228515625 -8554.935546875, -1673.9583740234375 -8555.01171875 C -1674.7833251953125 -8555.4248046875, -1675.615966796875 -8555.734375, -1676.456298828125 -8555.9404296875 C -1677.2965087890625 -8556.146484375, -1678.14453125 -8556.25, -1679 -8556.25 C -1679.8555908203125 -8556.25, -1680.7034912109375 -8556.146484375, -1681.5438232421875 -8555.9404296875 C -1682.384033203125 -8555.734375, -1683.2166748046875 -8555.4248046875, -1684.041748046875 -8555.01171875 C -1684.17919921875 -8554.935546875, -1684.2899169921875 -8554.8291015625, -1684.3740234375 -8554.69140625 C -1684.4580078125 -8554.5537109375, -1684.5 -8554.4013671875, -1684.5 -8554.2333984375 L -1684.5 -8553.5 Z M -1679 -8560.8330078125 C -1678.495849609375 -8560.8330078125, -1678.0643310546875 -8561.0126953125, -1677.7052001953125 -8561.37109375 C -1677.34619140625 -8561.73046875, -1677.166748046875 -8562.162109375, -1677.166748046875 -8562.666015625 C -1677.166748046875 -8563.1708984375, -1677.34619140625 -8563.6025390625, -1677.7052001953125 -8563.9609375 C -1678.0643310546875 -8564.3203125, -1678.495849609375 -8564.5, -1679 -8564.5 C -1679.504150390625 -8564.5, -1679.935791015625 -8564.3203125, -1680.2947998046875 -8563.9609375 C -1680.65380859375 -8563.6025390625, -1680.8333740234375 -8563.1708984375, -1680.8333740234375 -8562.666015625 C -1680.8333740234375 -8562.162109375, -1680.65380859375 -8561.73046875, -1680.2947998046875 -8561.37109375 C -1679.935791015625 -8561.0126953125, -1679.504150390625 -8560.8330078125, -1679 -8560.8330078125 Z"
    fill="#616161"
  />
</svg>
